<?xml version="1.0" standalone="no"?><!DOCTYPE svg PUBLIC "-//W3C//DTD SVG 1.1//EN" "http://www.w3.org/Graphics/SVG/1.1/DTD/svg11.dtd"><svg t="1672407504839" class="icon" viewBox="0 0 1024 1024" version="1.1" xmlns="http://www.w3.org/2000/svg" p-id="7721" xmlns:xlink="http://www.w3.org/1999/xlink" width="200" height="200"><path d="M263.3 233.2c61.7 14.1 107.7 42.9 102.8 64.3s-58.9 27.3-120.5 13.2-79.8-36.5-74.9-57.9c4.9-21.4 31-33.7 92.6-19.6z" fill="#96B510" p-id="7722"></path><path d="M308.4 338.5c-20.6 0-43.7-2.8-67.3-8.2-32.6-7.5-55.9-17.5-71.1-30.6-16.5-14.3-23.2-32.5-18.9-51.4 4.3-18.9 18.3-32.4 39.4-38.1 19.4-5.2 44.7-4.1 77.3 3.3 32 7.3 61.3 18.7 82.5 32 34.9 21.8 38.5 42.7 35.4 56.4-3.1 13.7-15.4 30.9-56.4 35.4-6.5 0.8-13.5 1.2-20.9 1.2z m-90.8-91.2c-7.5 0-12.9 0.8-16.7 1.8-9.3 2.5-10.2 6.4-10.6 8.2-0.4 1.9-1.3 5.7 6 12 6.9 5.9 21.7 14.5 53.7 21.8 51.2 11.7 84.9 6.6 94.9 1.5-6.8-8.9-34.9-28.2-86.2-39.9-18-4.1-31.3-5.4-41.1-5.4z" fill="#59285E" p-id="7723"></path><path d="M332.8 182.2c-5 63.1 8.6 115.6 30.5 117.3 21.9 1.8 43.7-47.9 48.8-111 5-63.1-10.9-87-32.8-88.8-21.9-1.7-41.4 19.4-46.5 82.5z" fill="#96B510" p-id="7724"></path><path d="M364.6 319.7c-1 0-1.9 0-2.9-0.1-14-1.1-32.8-10.8-43.2-50.7-6.3-24.3-8.3-55.7-5.7-88.3 7.4-91.9 45.8-102.7 68.1-100.9 22.3 1.8 58.6 18.5 51.2 110.5-2.6 32.7-9.6 63.3-19.7 86.3-15.4 35.1-34 43.2-47.8 43.2z m12.5-199.9c-9.6 0-20.7 19.6-24.3 64-4.2 52.4 5.7 85 12.2 94.1 7.9-8 22.8-38.6 27-91 3.6-45.3-4.6-66.4-14.4-67.2-0.1 0.1-0.3 0.1-0.5 0.1z" fill="#59285E" p-id="7725"></path><path d="M326.5 157.5c52.7 71.8 75.2 144.8 50.2 163.1-24.9 18.3-87.8-25.1-140.5-96.8S185 111.5 209.9 93.2s64-7.4 116.6 64.3z" fill="#96B510" p-id="7726"></path><path d="M362.7 344.9c-14.2 0-32.9-5.7-57.2-22.4-28.3-19.5-58.7-50.4-85.4-86.8-72.6-98.9-45-141.9-22.1-158.7 19.4-14.3 43.7-15.5 68.6-3.5 23.9 11.5 49.5 35.8 76.2 72.1 51.7 70.4 88.1 160.2 45.9 191.2-6.2 4.5-14.6 8.1-26 8.1zM233.5 105.5c-5.5 0-9.1 2-11.7 3.9-18.1 13.3-6.6 51.6 30.7 102.5 56.4 76.9 104.8 96.7 112.4 92.5 7.6-7.2-2.1-63.5-54.6-134.9-28.3-38.6-48.9-53.8-61.3-59.7-6.3-3.2-11.4-4.3-15.5-4.3z" fill="#59285E" p-id="7727"></path><path d="M816.4 919.8c-36.4 26.7-86.8 23.1-119.1-8.5L327.5 548.2c-47.3-46.4-67.2-115.4-47.9-178.8 10.9-35.7 32.9-68.3 65.3-92.1 32.4-23.8 70.1-35 107.4-34.7 66.3 0.6 126.1 40.2 156.2 99.3L844 803.6c20.5 40.3 8.8 89.4-27.6 116.2z" fill="#EE7725" p-id="7728"></path><path d="M761.9 957.9c-28.5 0-56.8-10.9-78.6-32.3l-369.9-363c-54-53-74.3-129.2-53-199 12.6-41.3 37.7-76.8 72.7-102.4 35-25.6 76.1-39.1 119.5-38.6 73 0.7 139.6 42.9 174 110.3L862 794.6c25.1 49.3 11 108.8-33.6 141.5-20.1 14.5-43.4 21.8-66.5 21.8zM450.7 262.7c-33.9 0-66.4 10.6-93.9 30.8-27.9 20.5-48 48.7-58 81.7-16.9 55.4-0.5 116.2 42.7 158.6l369.9 363c25.3 24.9 64.5 27.7 93.1 6.7 28.6-21 37.7-59.2 21.6-90.8L590.7 351c-27.5-54-80.6-87.8-138.5-88.3h-1.5z" fill="#59285E" p-id="7729"></path><path d="M451.5 662.8l93.9-68.9" fill="#96B510" p-id="7730"></path><path d="M451.5 682.9c-6.2 0-12.3-2.8-16.2-8.2-6.6-9-4.6-21.5 4.3-28.1l93.9-68.9c9-6.6 21.5-4.6 28.1 4.3 6.6 9 4.6 21.5-4.3 28.1L463.4 679c-3.6 2.6-7.7 3.9-11.9 3.9z" fill="#59285E" p-id="7731"></path><path d="M668.6 667.3l77.7-57" fill="#96B510" p-id="7732"></path><path d="M668.7 687.4c-6.2 0-12.3-2.8-16.2-8.2-6.6-9-4.6-21.5 4.3-28.1l77.6-56.9c9-6.6 21.5-4.6 28.1 4.3 6.6 9 4.6 21.5-4.3 28.1l-77.6 56.9c-3.6 2.6-7.8 3.9-11.9 3.9z" fill="#59285E" p-id="7733"></path><path d="M378.8 594l140.8-103.3" fill="#96B510" p-id="7734"></path><path d="M378.8 614.1c-6.2 0-12.3-2.8-16.2-8.2-6.6-9-4.6-21.5 4.3-28.1l140.8-103.3c9-6.6 21.5-4.6 28.1 4.3 6.6 9 4.6 21.5-4.3 28.1L390.7 610.2c-3.6 2.6-7.7 3.9-11.9 3.9z" fill="#59285E" p-id="7735"></path></svg>